name processed_emg_signals
nRows=82
nColumns=7
 
endheader
time	LGLTMED	LRF	LADDLONG	LST	LTA	LGM
0.617	0.201718706177185	0.2156077531170932	0.4575915610534871	0.2555855908217884	0.1306085159678768	0.2522211641854826
0.618	0.2011819750404647	0.2161083368369183	0.4589492055989262	0.2499110252816134	0.1290070259561163	0.2471592638661613
0.619	0.2006538446634469	0.2166000477158194	0.4602926328410894	0.2443139714288963	0.1273750301976768	0.2421112990555494
0.62	0.200134152007687	0.2170823865598312	0.46162119494536	0.2387977812944939	0.1257133332737851	0.2370799416349979
0.621	0.1996227318365491	0.217554878921587	0.4629342597407908	0.2333656446824971	0.1240227873682288	0.232067835090892
0.622	0.1991194175892077	0.2180170757103122	0.4642312115318124	0.2280205873839403	0.1223042922385366	0.2270775918874965
0.623	0.198624042246917	0.2184685537424168	0.4655114519073434	0.2227654696853026	0.1205587951146253	0.2221117908604128
0.624	0.1981364391885361	0.218908916230868	0.4667744005459751	0.21760298516955	0.1187872905252928	0.2171729746388918
0.625	0.197656443032774	0.2193377932120326	0.4680194960162019	0.2125356598070331	0.1169908200533188	0.2122636471052245
0.626	0.1971838904649721	0.2197548419085694	0.4692461965700077	0.2075658513331533	0.1151704720200029	0.2073862708991319
0.627	0.1967186210463823	0.2201597470275379	0.470453980929051	0.2026957489093592	0.1133273811003022	0.2025432649747057
0.628	0.1962604780043914	0.2205522209923679	0.4716423490611854	0.1979273730636787	0.1114627278698443	0.1977370022170084
0.629	0.1958093090013256	0.2209320041074439	0.4728108229453819	0.1932625759066412	0.1095777382854863	0.1929698071251145
0.63	0.1953649668800905	0.2212988646539117	0.4739589473227267	0.1887030416182183	0.1076736831013025	0.1882439535677906
0.631	0.1949273103835744	0.2216525989154841	0.4750862904302625	0.1842502872010403	0.1057518772221446	0.1835616626176806
0.632	0.1944962048449572	0.2219930311334481	0.4761924447151685	0.1799056634948099	0.1038136789969373	0.1789251004691862
0.633	0.1940715228460105	0.2223200133902415	0.4772770275247745	0.1756703564464398	0.1018604894539236	0.1743363764448683
0.634	0.193653144840022	0.2226334254217935	0.4783396817690012	0.1715453886299704	0.099893751480055	0.1697975410947292
0.635	0.1932409597366832	0.2229331743584346	0.4793800765499966	0.1675316210098375	0.0979149489466944	0.1653105843924042
0.636	0.1928348654457013	0.2232191943948146	0.480397907754985	0.1636297549405667	0.0959256057836589	0.1608774340318316
0.637	0.1924347693767557	0.2234914463883131	0.4813928986070711	0.1598403343955698	0.0939272850035197	0.1564999538277317
0.638	0.192040588892503	0.2237499173856728	0.4823648001700735	0.1561637484173481	0.091921587677862	0.1521799422226552
0.639	0.1916522517128008	0.2239946200773653	0.4833133918039741	0.1526002337809222	0.0899101518669544	0.1479191309030662
0.64	0.1912696962676007	0.2242255921793814	0.4842384815684765	0.1491498778621164	0.0878946515040824	0.1437191835263455
0.641	0.1908928719973977	0.2244428957424186	0.4851399065750066	0.1458126217018652	0.0858767952355424	0.1395816945602626
0.642	0.1905217396000823	0.2246466163886611	0.4860175332861265	0.1425882632575441	0.0838583252172638	0.135508188235943
0.643	0.1901562712241944	0.2248368624768585	0.4868712577637837	0.1394764608319739	0.0818410158689662	0.131500117615207
0.644	0.1897964506096352	0.225013764196928	0.4877010058668459	0.1364767366707009	0.0798266725867968	0.1275588637726212
0.645	0.1894422731768239	0.2251774725959203	0.4885067333984377	0.1335884807179173	0.0778171304154771	0.1236857350924489
0.646	0.1890937460666351	0.2253281585385444	0.4892884262052221	0.1308109545213597	0.0758142526810647	0.1198819666802307
0.647	0.1887508881326958	0.2254660116064474	0.4900461002293512	0.128143295276344	0.0738199295855564	0.1161487198885661
0.648	0.1884137298881682	0.2255912389415814	0.4907798015156854	0.1255845199988981	0.0718360767645934	0.1124870819563847
0.649	0.1880823134083404	0.2257040640395048	0.4914896061747931	0.1231335298177574	0.0698646338096223	0.1088980657607906
0.65	0.1877566921909709	0.2258047254990409	0.4921756203029094	0.1207891143746891	0.0679075627558557	0.1053826096803278
0.651	0.1874369309757793	0.2258934757345044	0.4928379798589147	0.118549956322512	0.0659668465374071	0.1019415775682755
0.652	0.1871231055249002	0.225970579656982	0.4934768504973652	0.1164146359096745	0.064044487410903	0.0985757588342435
0.653	0.1868153023660753	0.2260363133312765	0.4940924273570939	0.1143816356400998	0.06214250534884	0.0952858686320692
0.654	0.1865136185007234	0.2260909626150279	0.4946849348031457	0.1124493449965875	0.0602629364039147	0.0920725481517366
0.655	0.1862181610787761	0.2261348217864131	0.4952546261201135	0.1106160652159101	0.0584078310454906	0.0889363650128088
0.656	0.1859290470423903	0.2261681921667069	0.4958017831541583	0.1088800141034851	0.0565792524694344	0.0858778137566785
0.657	0.1856464027400894	0.2261913807437318	0.4963267159000868	0.1072393308755796	0.054779274882585	0.0828973164346507
0.658	0.1853703635132019	0.2262046988012964	0.4968297620293808	0.1056920810170842	0.0530099817632458	0.0799952232886708
0.659	0.1851010732553479	0.2262084605598352	0.4973112863537992	0.1042362611433151	0.0512734640991596	0.0771718135212706
0.66	0.184838683946534	0.2262029818324649	0.4977716802200566	0.1028698038551296	0.049571818604323	0.0744272961511447
0.661	0.1845833551621958	0.2261885787008307	0.4982113608311029	0.101590582577604	0.0479071459159866	0.0717618109506694
0.662	0.1843352535582722	0.2261655662151248	0.4986307704911394	0.1003964163740555	0.0462815487729861	0.0691754294615901
0.663	0.1840945523329301	0.2261342571223049	0.4990303757737941	0.0992850747282486	0.0446971301764338	0.0666681560850776
0.664	0.1838614306660962	0.2260949606266354	0.499410666614092	0.0982542822887306	0.0431559915336424	0.0642399292424855
0.665	0.1836360731378082	0.2260479811866708	0.499772155328056	0.0973017235697371	0.0416602307860804	0.0618906226031471
0.666	0.183418669126836	0.2259936173524156	0.5001153755639869	0.0964250476033042	0.0402119405220434	0.0596200463757444
0.667	0.1832094121911799	0.2259321606464611	0.5004408811913091	0.0956218725372962	0.038813206074732	0.0574279486598058
0.668	0.1830084994322883	0.2258638944929086	0.5007492451329371	0.0948897901738653	0.0374661036064698	0.0553140168539298
0.669	0.1828161308452922	0.2257890931972477	0.5010410581486779	0.094226370443035	0.036172698179775	0.053277879117222
0.67	0.1826325086579873	0.2257080209805904	0.501316927577378	0.0936291658062896	0.0349350418160257	0.0513191058803715
0.671	0.1824578366615926	0.2256209310716201	0.5015774760453889	0.0930957155854864	0.0337551715424996	0.0494372114026102
0.672	0.1822923195367484	0.2255280648594115	0.5018233401502077	0.0926235502126991	0.032635107428488	0.0476316553708049
0.673	0.1821361621782193	0.2254296511103533	0.5020551691254502	0.0922101953968241	0.0315768506112107	0.0459018445369224
0.674	0.1819895690220609	0.2253259052526894	0.502273623495464	0.0918531762030588	0.0305823813123295	0.0442471343902188
0.675	0.1818527433790684	0.2252170287313696	0.5024793737264076	0.0915500210416284	0.0296536568457884	0.0426668308605248
0.676	0.1817258867781944	0.2251032084362748	0.5026730988819512	0.0912982655624711	0.0287926096178981	0.0411601920490869
0.677	0.1816091983236557	0.2249846162064568	0.5028554852909084	0.0910954564527661	0.0280011451205301	0.0397264299834761
0.678	0.1815028740688543	0.2248614084126322	0.5030272252332911	0.0909391551344752	0.0272811399184619	0.0383647123930886
0.679	0.1814071064103093	0.2247337256207523	0.5031890156507107	0.0908269413589105	0.0266344396321024	0.0370741645019555
0.68	0.1813220835039527	0.2246016923384633	0.5033415568854418	0.0907564166955596	0.0260628569168673	0.0358538708356619
0.681	0.1812479887061529	0.2244654168469038	0.5034855514518357	0.090725207912229	0.025568169440775	0.0347028770393353
0.682	0.1811850000412704	0.2243249911191662	0.503621702844582	0.0907309702436104	0.0251521178618378	0.033620191703627
0.683	0.1811332896972511	0.2241804908263232	0.5037507143870821	0.0907713905454011	0.0248164038069943	0.0326047881957307
0.684	0.1810930235503433	0.2240319754311613	0.5038732881245552	0.090844190330904	0.0245626878542778	0.0316556064923904
0.685	0.18106436071971	0.2238794883687451	0.5039901237663164	0.0909471286870798	0.0243925875200472	0.0307715550119723
0.686	0.1810474531524895	0.2237230573123067	0.5041019176806704	0.0910780050668811	0.0243076752530457	0.0299515124426613
0.687	0.1810424452393711	0.2235626945223857	0.5042093619472545	0.091234661954665	0.0243094764371888	0.029194329563959
0.6880000000000001	0.1810494734607733	0.2233983972766067	0.5043131434703331	0.091414987401705	0.0243994674050425	0.0284988310586333
0.6890000000000001	0.181068666063242	0.2232301483772487	0.5044139431565475	0.0916169174289094	0.0245790734640748	0.027863817312458
0.6900000000000001	0.1811001427659717	0.2230579167334113	0.5045124351602339	0.0918384382940913	0.0248496669377899	0.0272880661991604
0.6910000000000001	0.1811440144971393	0.2228816580149979	0.5046092861986932	0.0920775886218791	0.0252125652240143	0.0267703348482045
0.6920000000000001	0.1812003831603744	0.2227013153751156	0.5047051549393775	0.0923324613950573	0.025669028872558	0.0263093613931558
0.6930000000000001	0.1812693414318021	0.2225168202378135	0.5048006914591139	0.092601205807189	0.0262202596846411	0.0259038666985705
0.6940000000000001	0.1813509725882653	0.2223280931475683	0.5048965367758482	0.0928820289772596	0.0268673988365458	0.0255525560634967
0.6950000000000001	0.1814453503673306	0.2221350446763436	0.5049933224512478	0.0931731975275676	0.0276115250300524	0.0252541208999017
0.6960000000000001	0.1815525388593463	0.2219375763837927	0.5050916702634094	0.0934730390266748	0.0284536526723669	0.0250072403844061
0.6970000000000001	0.1816725924316077	0.2217355818254308	0.5051921919478264	0.0937799432991399	0.0293947300882454	0.0248105830818893
0.6980000000000001	0.1818055556846878	0.2215289476032618	0.5052954890053818	0.0940923636041451	0.0304356377672168	0.0246628085396124
